<?xml version="1.0" standalone="no"?>
<!DOCTYPE svg PUBLIC "-//W3C//DTD SVG 20010904//EN"
 "http://www.w3.org/TR/2001/REC-SVG-20010904/DTD/svg10.dtd">
<svg version="1.0" xmlns="http://www.w3.org/2000/svg"
 width="500.000000pt" height="500.000000pt" viewBox="0 0 500.000000 500.000000"
 preserveAspectRatio="xMidYMid meet">
<metadata>
Created by potrace 1.16, written by Peter Selinger 2001-2019
</metadata>
<g transform="translate(0.000000,500.000000) scale(0.100000,-0.100000)"
fill="#000000" stroke="none">
<path d="M1273 4308 c-46 -59 -197 -435 -196 -488 0 -19 12 -138 26 -265 22
-197 30 -328 31 -460 0 -16 -3 -76 -7 -133 -5 -85 -4 -104 8 -109 25 -9 17
-30 -24 -62 -21 -17 -42 -31 -46 -31 -3 0 -12 -6 -19 -12 -7 -7 -48 -40 -91
-73 -43 -33 -92 -72 -108 -86 l-30 -25 52 -83 c28 -45 51 -84 51 -86 0 -2 14
-24 30 -48 17 -25 30 -50 30 -56 0 -30 21 -5 40 47 23 62 42 77 144 107 62 18
156 58 156 66 0 11 -59 18 -203 25 -88 5 -135 10 -128 17 5 5 38 30 74 56 141
101 296 234 385 329 50 55 92 105 92 111 0 19 -65 29 -192 30 l-88 1 0 53 c0
72 -29 340 -56 521 -8 54 -13 100 -11 102 2 2 93 -86 203 -196 109 -110 202
-200 206 -200 4 0 21 20 37 44 l31 44 -205 206 c-132 134 -211 206 -225 206
-11 0 -20 4 -20 8 0 10 45 141 99 286 23 61 41 117 41 126 0 16 -38 40 -64 40
-8 0 -18 -6 -23 -12z"/>
<path d="M3680 4299 c-27 -15 -34 -24 -32 -42 2 -12 32 -96 67 -187 86 -226
82 -209 47 -216 -21 -4 -86 -63 -227 -204 l-198 -198 30 -49 c16 -26 35 -48
42 -48 6 0 20 13 31 29 23 37 338 354 364 368 17 9 18 7 12 -33 -7 -50 -32
-261 -46 -389 -5 -47 -10 -122 -10 -167 l0 -83 -137 -1 c-76 -1 -144 -1 -150
0 -7 1 -13 -2 -13 -7 0 -23 218 -255 292 -313 46 -34 90 -70 99 -79 9 -9 52
-42 97 -75 44 -33 79 -61 78 -62 -1 -2 -74 -7 -161 -12 -87 -6 -162 -14 -168
-20 -13 -13 52 -45 123 -61 132 -29 127 -26 156 -103 l27 -71 33 40 c19 21 34
43 34 47 0 5 8 21 18 35 10 15 37 62 60 105 l41 77 -37 24 c-20 14 -53 39 -72
56 -19 17 -60 49 -90 70 -30 21 -66 48 -80 60 -14 12 -31 25 -39 30 -13 7 -12
12 2 33 14 22 16 51 12 219 -2 106 0 234 5 283 5 50 12 126 15 170 3 44 8 100
10 125 18 175 18 176 -5 241 -12 35 -27 72 -32 82 -5 10 -11 27 -13 37 -2 10
-15 43 -29 74 -14 31 -26 61 -26 66 0 6 -4 18 -9 28 -5 9 -22 45 -37 80 -15
34 -32 61 -38 61 -6 -1 -27 -10 -46 -20z"/>
<path d="M1416 4248 c-2 -7 -8 -29 -15 -48 -6 -19 -8 -36 -4 -38 5 -1 107 -68
228 -148 121 -80 247 -160 280 -178 33 -18 108 -60 167 -94 l108 -62 129 0
130 0 13 27 c20 41 41 49 71 27 15 -10 29 -27 32 -36 6 -16 22 -18 147 -18
105 0 146 4 157 14 21 17 201 130 266 166 28 15 147 89 265 163 l215 136 -3
38 c-5 64 -7 66 -51 44 -21 -11 -173 -100 -337 -199 -304 -181 -425 -251 -456
-264 -13 -5 -26 3 -50 32 l-31 40 -178 0 -179 0 -20 -39 c-19 -38 -21 -39 -51
-31 -17 5 -38 15 -46 22 -17 14 -38 26 -102 59 -24 12 -112 63 -195 114 -298
180 -474 285 -480 285 -4 0 -8 -6 -10 -12z"/>
<path d="M1953 2888 c-5 -7 -13 -21 -16 -31 -9 -25 31 -127 64 -159 19 -19 24
-30 16 -35 -7 -5 -63 -7 -125 -6 -97 1 -118 5 -155 25 -43 24 -53 39 -101 151
-24 55 -46 75 -46 40 0 -36 50 -180 78 -224 24 -37 38 -48 82 -62 29 -9 63
-17 76 -17 12 0 26 -4 29 -10 4 -6 -7 -10 -24 -10 -37 0 -39 -15 -11 -68 41
-75 107 -146 167 -179 30 -16 34 -16 49 -2 14 15 14 24 0 95 -8 43 -18 86 -21
95 -4 10 -2 20 3 23 11 7 103 -134 150 -229 31 -63 56 -131 67 -179 26 -119
49 261 26 413 -7 44 -25 101 -44 139 -28 57 -41 71 -107 114 -41 27 -91 68
-111 89 -28 31 -38 37 -46 27z"/>
<path d="M3025 2870 c-7 -33 -32 -53 -115 -94 -70 -35 -87 -50 -116 -108 -51
-100 -63 -215 -47 -461 4 -67 10 -107 17 -107 6 0 24 35 40 78 40 106 120 273
142 297 49 53 52 51 37 -28 -7 -39 -12 -92 -11 -117 5 -72 27 -66 128 38 49
50 98 93 109 97 29 9 26 24 -10 61 l-31 32 34 7 c51 11 135 54 151 78 7 12 24
47 36 77 13 30 39 79 58 108 19 29 33 57 31 63 -7 22 -99 -77 -128 -139 -21
-44 -37 -65 -57 -73 -32 -13 -283 -25 -309 -15 -13 5 -7 13 29 41 62 47 78 97
52 155 -22 48 -31 50 -40 10z"/>
<path d="M1230 2403 c-19 -8 -73 -38 -119 -65 -78 -48 -85 -55 -111 -112 -15
-34 -47 -115 -70 -181 -23 -66 -53 -143 -65 -171 -22 -49 -22 -51 -5 -85 10
-19 42 -90 71 -159 29 -69 56 -129 60 -134 9 -10 99 171 99 197 0 8 3 17 7 21
4 3 8 13 9 21 1 8 10 37 19 66 10 28 23 77 30 108 33 149 106 469 111 489 4
12 5 22 3 21 -2 0 -20 -7 -39 -16z"/>
<path d="M3760 2403 c0 -55 62 -350 122 -583 40 -157 105 -320 127 -320 3 0
19 28 35 63 15 34 48 104 72 155 24 51 44 100 44 108 0 8 -15 53 -34 102 -19
48 -40 105 -47 127 -20 67 -59 169 -72 191 -10 18 -170 133 -227 164 -16 9
-20 7 -20 -7z"/>
<path d="M1546 2283 c18 -121 5 -183 -53 -261 -14 -18 -22 -36 -19 -39 10 -10
74 57 112 115 34 52 34 55 25 107 -9 49 -52 135 -67 135 -4 0 -2 -26 2 -57z"/>
<path d="M3452 2315 c-29 -37 -46 -115 -34 -159 9 -32 120 -171 129 -162 2 2
-15 39 -38 82 -40 76 -41 82 -36 149 3 39 9 80 12 93 10 30 -9 28 -33 -3z"/>
<path d="M1743 1888 c-6 -7 -24 -38 -40 -68 -17 -30 -69 -125 -116 -211 -48
-86 -87 -165 -87 -175 0 -10 12 -56 26 -103 15 -48 28 -95 30 -106 6 -38 12
-60 31 -105 l20 -44 35 49 c32 43 82 140 160 305 l26 55 37 -80 c20 -44 63
-141 94 -215 93 -215 99 -228 162 -307 32 -41 59 -78 59 -81 0 -4 20 -28 43
-52 24 -25 74 -78 111 -119 37 -41 88 -90 112 -109 l45 -34 49 32 c61 39 191
170 257 259 7 9 41 52 77 96 36 44 81 112 100 150 39 80 106 230 106 238 0 3
15 38 34 79 18 40 41 91 51 113 l17 40 20 -45 c29 -64 87 -191 137 -294 28
-60 46 -85 52 -79 10 10 102 263 121 335 9 33 7 42 -21 90 -34 57 -42 71 -58
103 -27 53 -87 160 -116 204 -18 27 -37 57 -42 67 -9 14 -15 15 -33 5 -12 -6
-22 -16 -22 -20 0 -5 -19 -33 -43 -63 -24 -29 -68 -90 -99 -134 -49 -71 -59
-92 -72 -164 -18 -93 -46 -155 -114 -250 -93 -130 -179 -202 -281 -236 -75
-24 -188 -16 -265 19 -118 54 -270 248 -321 410 -14 43 -25 88 -25 100 0 31
-38 93 -135 222 -99 131 -108 140 -122 123z m482 -941 c33 -22 108 -89 166
-150 l106 -111 84 89 c46 49 98 103 114 119 32 32 128 96 143 96 5 0 -18 -28
-52 -63 -34 -34 -113 -120 -176 -191 l-115 -128 -45 54 c-25 29 -85 96 -134
148 -205 218 -198 208 -91 137z"/>
<path d="M3480 1825 c0 -8 6 -32 14 -52 8 -21 36 -99 62 -173 41 -120 149
-351 258 -555 44 -83 56 -97 57 -70 7 130 -13 508 -33 627 l-11 70 -169 84
c-93 46 -171 84 -174 84 -2 0 -4 -7 -4 -15z"/>
<path d="M1445 1785 c-75 -28 -255 -111 -266 -122 -30 -30 -67 -703 -39 -703
6 0 14 8 18 18 4 9 34 64 67 122 73 128 187 366 227 475 39 105 78 218 78 228
0 11 -19 7 -85 -18z"/>
<path d="M2351 1508 c-30 -13 -63 -35 -73 -49 -25 -33 -26 -84 -3 -109 18 -19
18 -19 64 14 78 56 129 69 211 52 39 -8 74 -24 99 -44 47 -37 54 -39 81 -12
29 29 25 71 -7 103 -47 44 -99 60 -213 64 -92 3 -112 1 -159 -19z"/>
<path d="M3151 1307 c-7 -23 -39 -105 -71 -182 -32 -77 -61 -150 -65 -162 -5
-17 9 -50 51 -125 32 -57 59 -105 61 -107 7 -10 13 9 28 89 16 84 28 136 45
195 27 90 33 166 21 233 -17 92 -22 103 -31 72 -7 -23 -8 -23 -9 -3 -2 39 -18
34 -30 -10z"/>
<path d="M1792 1282 c-12 -32 -22 -68 -22 -80 0 -12 16 -99 36 -194 20 -95 38
-182 40 -193 10 -56 16 -75 22 -74 4 0 34 46 68 103 l61 102 -18 50 c-30 86
-144 337 -154 341 -6 2 -20 -23 -33 -55z"/>
</g>
</svg>
